<svg id="Layer_1" data-name="Layer 1" xmlns="http://www.w3.org/2000/svg" viewBox="0 0 356.16 107.43"><defs><style>.cls-1{fill:#fff;}</style></defs><title>Dorai UI logo dark BG</title><path class="cls-1" d="M62.8,80.17H22.72V27.26H0v80.17H40.08A40.07,40.07,0,0,0,79,76.72,39.89,39.89,0,0,1,62.8,80.17Z"/><path class="cls-1" d="M102.89,40.09A40.09,40.09,0,0,0,62.8,0H22.72V27.26H40.08A39.94,39.94,0,0,1,79,76.72,40.07,40.07,0,0,0,102.89,40.09Z"/><path class="cls-1" d="M129.91,18.76l26.72-.1c18.79,0,35.26,12.45,35.26,35.16s-16.47,35.26-35.26,35.26H129.91Zm26.22,57.46c12.45,0,22.5-7.23,22.5-22.4s-10-22.21-22.5-22.21H143.07V76.22Z"/><path class="cls-1" d="M194.41,64.16a26.67,26.67,0,0,1,53.34,0,26.39,26.39,0,0,1-26.62,26.22C206.46,90.38,194.41,78.73,194.41,64.16Zm40.38.1c0-8.33-6-14.56-13.66-14.46-7.73-.1-13.76,6.13-13.76,14.46s6,14.47,13.76,14.37C228.77,78.73,234.79,72.5,234.79,64.26Z"/><path class="cls-1" d="M252.28,39.35h12.55v6.53c4.12-5.43,10.65-7.53,19.09-7.34V51.81a15,15,0,0,0-6.83-1.51c-6.33,0-12.26,5.22-12.26,15V89.08H252.28Z"/><path class="cls-1" d="M283.22,64.26c0-14.56,10-25.72,23.41-25.72,8,0,13.36,2.92,17.18,7.44V39.35h12.56V89.08H323.81V82.55c-3.82,4.42-9.14,7.33-17.18,7.33C293.27,89.88,283.22,78.63,283.22,64.26Zm40.59,0c0-8.44-6.13-14.76-14.07-14.76s-14.06,6.32-14.06,14.76,6.13,14.67,14.06,14.67S323.81,72.6,323.81,64.26Z"/><path class="cls-1" d="M341.9,23.88a7.14,7.14,0,0,1,14.26,0,7.13,7.13,0,1,1-14.26,0Zm1,15.47h12.26V89.08H342.9Z"/></svg>